<?xml version="1.0" encoding="utf-8"?>
<!-- Generator: Adobe Illustrator 15.0.0, SVG Export Plug-In . SVG Version: 6.00 Build 0)  -->
<!DOCTYPE svg PUBLIC "-//W3C//DTD SVG 1.1//EN" "http://www.w3.org/Graphics/SVG/1.1/DTD/svg11.dtd">
<svg version="1.1" id="Layer_1" xmlns="http://www.w3.org/2000/svg" xmlns:xlink="http://www.w3.org/1999/xlink" x="0px" y="0px"
	 width="30px" height="30px" viewBox="0 0 30 30" enable-background="new 0 0 30 30" xml:space="preserve">
<circle fill="#BE1E2D" cx="15" cy="15" r="12.5"/>
<circle fill="#FFFFFF" cx="15" cy="15" r="11"/>
<path d="M15,6c-3.106,0-5.625,2.519-5.625,5.625C9.375,17.249,15,24,15,24s5.625-6.751,5.625-12.375C20.625,8.519,18.105,6,15,6z
	 M15,15c-1.864,0-3.375-1.511-3.375-3.375c0-1.865,1.511-3.375,3.375-3.375s3.375,1.51,3.375,3.375C18.375,13.489,16.864,15,15,15z"
	/>
<rect x="14" y="3.5" transform="matrix(0.7071 -0.7071 0.7071 0.7071 -6.2132 15)" fill="#BE1E2D" width="2" height="23"/>
</svg>
